<?xml version="1.0" standalone="no"?>
<!DOCTYPE svg PUBLIC "-//W3C//DTD SVG 20010904//EN"
 "http://www.w3.org/TR/2001/REC-SVG-20010904/DTD/svg10.dtd">
<svg version="1.0" xmlns="http://www.w3.org/2000/svg"
 width="710.000000pt" height="710.000000pt" viewBox="0 0 710.000000 710.000000"
 preserveAspectRatio="xMidYMid meet">
<metadata>
Created by potrace 1.11, written by Peter Selinger 2001-2013
</metadata>
<g transform="translate(0.000000,710.000000) scale(0.100000,-0.100000)"
fill="#000000" stroke="none">
<path d="M0 3550 l0 -3550 3550 0 3550 0 0 3550 0 3550 -3550 0 -3550 0 0
-3550z m3589 1722 c127 -123 231 -227 231 -231 0 -4 -238 -238 -529 -519 -417
-402 -532 -519 -541 -548 -24 -72 -11 -91 227 -320 120 -115 294 -276 386
-358 96 -84 175 -163 184 -181 11 -23 13 -44 9 -71 -7 -32 -33 -63 -184 -209
-97 -95 -191 -184 -208 -198 l-30 -26 -425 396 c-233 217 -510 478 -616 579
-221 213 -243 245 -243 353 1 102 20 133 182 290 694 674 1314 1270 1320 1268
3 -1 110 -103 237 -225z m783 -1172 c632 -589 802 -755 834 -814 24 -42 29
-63 29 -121 0 -60 -4 -78 -30 -122 -22 -39 -202 -218 -685 -684 -360 -347
-684 -660 -720 -695 l-65 -64 -239 233 -238 232 514 493 c282 272 525 510 541
529 30 40 36 100 13 141 -18 34 -447 444 -619 592 -79 69 -152 137 -161 152
-9 14 -16 46 -16 70 -1 43 -1 43 206 246 114 111 211 201 215 200 4 -2 194
-176 421 -388z"/>
</g>
</svg>
